<?xml version="1.0" encoding="UTF-8" standalone="no"?>
<!-- Created with Inkscape (http://www.inkscape.org/) -->

<svg
   xmlns:dc="http://purl.org/dc/elements/1.1/"
   xmlns:cc="http://creativecommons.org/ns#"
   xmlns:rdf="http://www.w3.org/1999/02/22-rdf-syntax-ns#"
   xmlns:svg="http://www.w3.org/2000/svg"
   xmlns="http://www.w3.org/2000/svg"
   xmlns:sodipodi="http://sodipodi.sourceforge.net/DTD/sodipodi-0.dtd"
   xmlns:inkscape="http://www.inkscape.org/namespaces/inkscape"
   width="788mm"
   height="1828mm"
   viewBox="0 0 787.99999 1828.0001"
   version="1.1"
   id="svg5"
   xml:space="preserve"
   sodipodi:docname="dtu_climbing1.svg"
   inkscape:version="0.92.1 r15371"><metadata
     id="metadata18"><rdf:RDF><cc:Work
         rdf:about=""><dc:format>image/svg+xml</dc:format><dc:type
           rdf:resource="http://purl.org/dc/dcmitype/StillImage" /><dc:title></dc:title></cc:Work></rdf:RDF></metadata><sodipodi:namedview
     id="namedview7"
     pagecolor="#ffffff"
     bordercolor="#000000"
     borderopacity="0.25"
     inkscape:showpageshadow="2"
     inkscape:pageopacity="0.0"
     inkscape:pagecheckerboard="0"
     inkscape:deskcolor="#d1d1d1"
     inkscape:document-units="mm"
     showgrid="true"
     inkscape:zoom="0.06872062"
     inkscape:cx="-6455.9763"
     inkscape:cy="1441.2693"
     inkscape:window-width="1920"
     inkscape:window-height="1017"
     inkscape:window-x="-8"
     inkscape:window-y="-8"
     inkscape:window-maximized="1"
     inkscape:current-layer="svg5"
     showguides="false"
     fit-margin-top="0"
     fit-margin-left="0"
     fit-margin-right="0"
     fit-margin-bottom="0" /><defs
     id="defs2" /><g
     id="g121"
     transform="matrix(0,-0.66219375,-0.61728145,0,453.27266,1497.761)"
     inkscape:export-filename="gym_map.svg"
     inkscape:export-xdpi="96"
     inkscape:export-ydpi="96"><g
       id="g123"><g
         id="g125"><g
           id="g127"><path
             d="m -498.70438,-546.60623 0.99375,1280.9109 2750.92893,-0.68211 V -541.44839 Z"
             style="fill:#404040;fill-opacity:0.97254902;fill-rule:nonzero;stroke:none"
             id="path129"
             inkscape:connector-curvature="0"
             sodipodi:nodetypes="ccccc" /></g></g><g
         id="g131"><g
           id="g133"><path
             d="M 0,177.16754 V 143.7266 c 0,-1.10047 0.89207,-1.99256 1.99255,-1.99256 h 137.74894 c 1.10047,0 1.99255,-0.89208 1.99255,-1.99255 v -31.44841 c 0,-1.10047 0.89209,-1.99256 1.99256,-1.99256 h 194.44256 c 1.10046,0 1.99255,0.89209 1.99255,1.99256 v 66.88191 c 0,1.10048 0.89208,1.99255 1.99256,1.99255 h 81.05531 c 1.10048,0 1.66127,-0.82824 1.25259,-1.84996 l -26.86687,-67.1671 c -0.40867,-1.02171 -0.18272,-2.54652 0.5047,-3.40579 l 25.85746,-32.32185 c 0.68742,-0.85926 2.13676,-1.55584 3.23723,-1.55584 h 109.40214 c 1.10047,0 2.54981,0.69658 3.23723,1.55584 l 25.85745,32.32185 c 0.68743,0.85927 0.91338,2.38408 0.5047,3.40579 l -26.86686,67.1671 c -0.40868,1.02172 0.15211,1.84996 1.25259,1.84996 h 166.09575 c 1.10046,0 1.99255,-0.89207 1.99255,-1.99255 V 143.7266 c 0,-1.10047 0.3313,-2.82081 0.73998,-3.84252 l 12.69345,-31.7336 c 0.40867,-1.02171 1.42526,-2.42103 2.27063,-3.12548 l 39.45889,-32.88245 c 0.84537,-0.70447 2.42273,-1.27555 3.52321,-1.27555 h 52.70851 c 1.10046,0 2.67784,0.57108 3.52321,1.27555 l 39.45889,32.88245 c 0.84537,0.70445 1.86196,2.10377 2.27063,3.12548 l 12.69346,31.7336 c 0.40867,1.02171 0.73997,2.74205 0.73997,3.84252 v 31.44839 c 0,1.10048 0.89207,1.99255 1.99255,1.99255 h 81.05533 c 1.10046,0 2.74902,-0.47279 3.68222,-1.05601 l 24.96747,-15.60471 c 0.93318,-0.58322 2.58176,-1.05602 3.68222,-1.05602 h 52.70854 c 1.1005,0 2.749,-0.47279 3.6822,-1.05601 l 24.9675,-15.60471 c 0.9332,-0.58323 2.5817,-1.05603 3.6822,-1.05603 h 81.0553 c 1.1005,0 2.3239,0.82825 2.7325,1.84996 l 12.6935,31.7336 c 0.4087,1.02171 1.6321,1.84996 2.7325,1.84996 h 81.0553 c 1.1005,0 1.9926,-0.89207 1.9926,-1.99255 V 72.85957 c 0,-1.10046 0.8921,-1.99255 1.9926,-1.99255 h 52.7085 c 1.1004,0 1.9925,0.89209 1.9925,1.99255 v 66.88193 c 0,1.10048 0.8921,1.99255 1.9926,1.99255 h 137.7489 c 1.1005,0 1.9926,-0.89207 1.9926,-1.99255 V 72.85957 c 0,-1.10046 0.8921,-1.99255 1.9925,-1.99255 h 38.5351 c 1.1005,0 1.9926,0.89209 1.9926,1.99255 v 31.44841 c 0,1.10048 0.8921,1.99256 1.9925,1.99256 h 81.0553 c 1.1005,0 1.9926,-0.89208 1.9926,-1.99256 V 72.85957 c 0,-1.10046 0.8921,-1.99255 1.9926,-1.99255 h 38.5351 c 1.1004,0 1.9925,0.89209 1.9925,1.99255 v 68.87448 m 0,-70.86703 139.801,34.95032 c 1.0676,0.26686 1.9331,1.37529 1.9331,2.47575 v 31.44841 c 0,1.10048 0.892,1.99255 1.9925,1.99255 h 279.483 c 1.1005,0 58.6861,0.4721 58.677,-0.62831 L 2110.6593,-0.05380536 C 2110.6502,-1.1541963 2054.2516,0 2053.1511,0 h -81.0553 c -1.1005,0 -2.5498,0.69658 -3.2372,1.55583 l -25.8575,32.32186 c -0.6874,0.85926 -1.8019,0.85926 -2.4894,0 L 1914.6543,1.55583 C 1913.9669,0.69658 1912.5175,0 1911.4171,0 h -139.7415"
             style="fill:none;stroke:#ffffff;stroke-width:7.97021008;stroke-linecap:butt;stroke-linejoin:miter;stroke-miterlimit:10;stroke-dasharray:none;stroke-opacity:1"
             id="path135"
             inkscape:connector-curvature="0"
             sodipodi:nodetypes="csssssssssssccccssccccssssccccssccccssssccssccssccssssssssssssssssssssssscccssssssssscccsc" /><g
             id="g137" /></g><g
           id="g139"><path
             d="m 1462.6955,152.39719 11.3386,24.80333 h 28.3468 v -17.71676 h 85.0404 v 17.71676 h 127.5606 l 51.0244,-30.1187"
             style="fill:none;stroke:#999999;stroke-width:7.97021008;stroke-linecap:round;stroke-linejoin:miter;stroke-miterlimit:10;stroke-dasharray:7.97021, 19.9255;stroke-dashoffset:0;stroke-opacity:1"
             id="path141"
             inkscape:connector-curvature="0" /></g><g
           id="g143"><path
             d="m -255.03713,702.88227 -9.91718,-1244.03155 2518.17261,-0.29911 V 733.62256 Z"
             style="fill:none;stroke:#404040;stroke-width:0.3985;stroke-linecap:butt;stroke-linejoin:miter;stroke-miterlimit:10;stroke-dasharray:none;stroke-opacity:1"
             id="path145"
             inkscape:connector-curvature="0"
             sodipodi:nodetypes="ccccc" /></g></g></g></g></svg>